<?xml version="1.0" encoding="UTF-8"?>
<svg width="375px" height="795px" viewBox="0 0 375 795" version="1.1" xmlns="http://www.w3.org/2000/svg" xmlns:xlink="http://www.w3.org/1999/xlink">
    <title>Group 2</title>
    <g id="Page-1" stroke="none" stroke-width="1" fill="none" fill-rule="evenodd">
        <g id="Group-2" fill="#FFFFFF">
            <path d="M375,29 L375,394 L0,394 L0,29 L375,29 Z M315,351 L245,351 L245,365 L315,365 L315,351 Z M178,351 L130,351 L130,365 L178,365 L178,351 Z M39,351 L15,351 L15,365 L39,365 L39,351 Z M279,327 L245,327 L245,341 L279,341 L279,327 Z M200,327 L130,327 L130,341 L200,341 L200,327 Z M55,327 L15,327 L15,341 L55,341 L55,327 Z M315,303 L245,303 L245,317 L315,317 L315,303 Z M178,303 L130,303 L130,317 L178,317 L178,303 Z M39,303 L15,303 L15,317 L39,317 L39,303 Z M279,279 L245,279 L245,293 L279,293 L279,279 Z M200,279 L130,279 L130,293 L200,293 L200,279 Z M55,279 L15,279 L15,293 L55,293 L55,279 Z M315,255 L245,255 L245,269 L315,269 L315,255 Z M178,255 L130,255 L130,269 L178,269 L178,255 Z M39,255 L15,255 L15,269 L39,269 L39,255 Z M279,231 L245,231 L245,245 L279,245 L279,231 Z M200,231 L130,231 L130,245 L200,245 L200,231 Z M55,231 L15,231 L15,245 L55,245 L55,231 Z M178,207 L130,207 L130,221 L178,221 L178,207 Z M315,207 L245,207 L245,221 L315,221 L315,207 Z M39,207 L15,207 L15,221 L39,221 L39,207 Z M55,183 L15,183 L15,197 L55,197 L55,183 Z M200,183 L130,183 L130,197 L200,197 L200,183 Z M279,183 L245,183 L245,197 L279,197 L279,183 Z M39,159 L15,159 L15,173 L39,173 L39,159 Z M178,159 L130,159 L130,173 L178,173 L178,159 Z M315,159 L245,159 L245,173 L315,173 L315,159 Z M55,135 L15,135 L15,149 L55,149 L55,135 Z M279,135 L245,135 L245,149 L279,149 L279,135 Z M200,135 L130,135 L130,149 L200,149 L200,135 Z M39,111 L15,111 L15,125 L39,125 L39,111 Z M315,111 L245,111 L245,125 L315,125 L315,111 Z M178,111 L130,111 L130,125 L178,125 L178,111 Z M200,87 L130,87 L130,101 L200,101 L200,87 Z M279,87 L245,87 L245,101 L279,101 L279,87 Z M55,87 L15,87 L15,101 L55,101 L55,87 Z M39,63 L15,63 L15,77 L39,77 L39,63 Z M178,63 L130,63 L130,77 L178,77 L178,63 Z M315,63 L245,63 L245,77 L315,77 L315,63 Z M55,39 L15,39 L15,53 L55,53 L55,39 Z M200,39 L130,39 L130,53 L200,53 L200,39 Z M279,39 L245,39 L245,53 L279,53 L279,39 Z M375,0 L375,28 L0,28 L0,0 L375,0 Z M165,8 L15,8 L15,20 L165,20 L165,8 Z" id="Combined-Shape"></path>
            <path d="M375,430 L375,795 L0,795 L0,430 L375,430 Z M315,752 L245,752 L245,766 L315,766 L315,752 Z M178,752 L130,752 L130,766 L178,766 L178,752 Z M39,752 L15,752 L15,766 L39,766 L39,752 Z M279,728 L245,728 L245,742 L279,742 L279,728 Z M200,728 L130,728 L130,742 L200,742 L200,728 Z M55,728 L15,728 L15,742 L55,742 L55,728 Z M315,704 L245,704 L245,718 L315,718 L315,704 Z M178,704 L130,704 L130,718 L178,718 L178,704 Z M39,704 L15,704 L15,718 L39,718 L39,704 Z M279,680 L245,680 L245,694 L279,694 L279,680 Z M200,680 L130,680 L130,694 L200,694 L200,680 Z M55,680 L15,680 L15,694 L55,694 L55,680 Z M315,656 L245,656 L245,670 L315,670 L315,656 Z M178,656 L130,656 L130,670 L178,670 L178,656 Z M39,656 L15,656 L15,670 L39,670 L39,656 Z M279,632 L245,632 L245,646 L279,646 L279,632 Z M200,632 L130,632 L130,646 L200,646 L200,632 Z M55,632 L15,632 L15,646 L55,646 L55,632 Z M178,608 L130,608 L130,622 L178,622 L178,608 Z M315,608 L245,608 L245,622 L315,622 L315,608 Z M39,608 L15,608 L15,622 L39,622 L39,608 Z M55,584 L15,584 L15,598 L55,598 L55,584 Z M200,584 L130,584 L130,598 L200,598 L200,584 Z M279,584 L245,584 L245,598 L279,598 L279,584 Z M39,560 L15,560 L15,574 L39,574 L39,560 Z M178,560 L130,560 L130,574 L178,574 L178,560 Z M315,560 L245,560 L245,574 L315,574 L315,560 Z M55,536 L15,536 L15,550 L55,550 L55,536 Z M279,536 L245,536 L245,550 L279,550 L279,536 Z M200,536 L130,536 L130,550 L200,550 L200,536 Z M39,512 L15,512 L15,526 L39,526 L39,512 Z M315,512 L245,512 L245,526 L315,526 L315,512 Z M178,512 L130,512 L130,526 L178,526 L178,512 Z M200,488 L130,488 L130,502 L200,502 L200,488 Z M279,488 L245,488 L245,502 L279,502 L279,488 Z M55,488 L15,488 L15,502 L55,502 L55,488 Z M39,464 L15,464 L15,478 L39,478 L39,464 Z M178,464 L130,464 L130,478 L178,478 L178,464 Z M315,464 L245,464 L245,478 L315,478 L315,464 Z M55,440 L15,440 L15,454 L55,454 L55,440 Z M200,440 L130,440 L130,454 L200,454 L200,440 Z M279,440 L245,440 L245,454 L279,454 L279,440 Z M375,401 L375,429 L0,429 L0,401 L375,401 Z M360,409 L338,409 L338,421 L360,421 L360,409 Z M120,409.84 L15,409.84 L15,420.16 L120,420.16 L120,409.84 Z" id="Combined-Shape"></path>
        </g>
    </g>
</svg>